<svg xmlns="http://www.w3.org/2000/svg" xmlns:xlink="http://www.w3.org/1999/xlink" contentStyleType="text/css" height="397px" preserveAspectRatio="none" style="width:323px;height:397px;background:#FFFFFF;" version="1.1" viewBox="0 0 323 397" width="323px" zoomAndPan="magnify"><defs/><g><ellipse cx="46.1" cy="16" fill="#222222" rx="10" ry="10" style="stroke:#222222;stroke-width:1.0;"/><g id="Case3"><rect fill="#F1F1F1" height="50" rx="12.5" ry="12.5" style="stroke:#181818;stroke-width:0.5;" width="63.1689" x="14.52" y="87"/><line style="stroke:#181818;stroke-width:0.5;" x1="14.52" x2="77.6889" y1="113.2969" y2="113.2969"/><text fill="#000000" font-family="sans-serif" font-size="14" lengthAdjust="spacing" textLength="43.1689" x="24.52" y="104.9951">Case3</text></g><g id="Stoppen"><rect fill="#F1F1F1" height="50" rx="12.5" ry="12.5" style="stroke:#181818;stroke-width:0.5;" width="78.2012" x="7" y="214"/><line style="stroke:#181818;stroke-width:0.5;" x1="7" x2="85.2012" y1="240.2969" y2="240.2969"/><text fill="#000000" font-family="sans-serif" font-size="14" lengthAdjust="spacing" textLength="58.2012" x="17" y="231.9951">Stoppen</text></g><g id="Case1"><rect fill="#F1F1F1" height="50" rx="12.5" ry="12.5" style="stroke:#181818;stroke-width:0.5;" width="63.1689" x="14.52" y="341"/><line style="stroke:#181818;stroke-width:0.5;" x1="14.52" x2="77.6889" y1="367.2969" y2="367.2969"/><text fill="#000000" font-family="sans-serif" font-size="14" lengthAdjust="spacing" textLength="43.1689" x="24.52" y="358.9951">Case1</text></g><!--link *start* to Case3--><g id="link_*start*_Case3"><path d="M46.1,26.36 C46.1,40.29 46.1,60.95 46.1,80.65 " fill="none" id="*start*-to-Case3" style="stroke:#181818;stroke-width:1.0;"/><polygon fill="#181818" points="46.1,86.65,50.1,77.65,46.1,81.65,42.1,77.65,46.1,86.65" style="stroke:#181818;stroke-width:1.0;"/></g><!--link Case3 to Stoppen--><g id="link_Case3_Stoppen"><path d="M46.1,137.4 C46.1,159.42 46.1,185.66 46.1,207.66 " fill="none" id="Case3-to-Stoppen" style="stroke:#181818;stroke-width:1.0;"/><polygon fill="#181818" points="46.1,213.66,50.1,204.66,46.1,208.66,42.1,204.66,46.1,213.66" style="stroke:#181818;stroke-width:1.0;"/><text fill="#000000" font-family="sans-serif" font-size="13" lengthAdjust="spacing" textLength="267.9854" x="47.1" y="180.0669">ProductGedetecteerd2 &amp;&amp; Timer.ET &gt; 1s</text></g><!--link Stoppen to Case1--><g id="link_Stoppen_Case1"><path d="M46.1,264.4 C46.1,286.42 46.1,312.66 46.1,334.66 " fill="none" id="Stoppen-to-Case1" style="stroke:#181818;stroke-width:1.0;"/><polygon fill="#181818" points="46.1,340.66,50.1,331.66,46.1,335.66,42.1,331.66,46.1,340.66" style="stroke:#181818;stroke-width:1.0;"/><text fill="#000000" font-family="sans-serif" font-size="13" lengthAdjust="spacing" textLength="106.4185" x="47.1" y="307.0669">MotorStatus = 0</text></g><!--SRC=[YzQALT3LjLDmJYnEDUO2as1-S4b-GK5gdeALGa1HVaffSebxQafgIMfoIMfgKOgHWfgQGaXcRcgHdck8Wfs2OJ4NJ3tCB4EWJj_yaloYu9B4aj9Y1Li50m00]--></g></svg>