<svg xmlns="http://www.w3.org/2000/svg" xmlns:xlink="http://www.w3.org/1999/xlink" contentStyleType="text/css" height="342px" preserveAspectRatio="none" style="width:676px;height:342px;background:#FFFFFF;" version="1.1" viewBox="0 0 676 342" width="676px" zoomAndPan="magnify"><defs/><g><line style="stroke:#181818;stroke-width:0.5;stroke-dasharray:5.0,5.0;" x1="34" x2="34" y1="53.2969" y2="290.2266"/><line style="stroke:#181818;stroke-width:0.5;stroke-dasharray:5.0,5.0;" x1="257.9966" x2="257.9966" y1="53.2969" y2="290.2266"/><line style="stroke:#181818;stroke-width:0.5;stroke-dasharray:5.0,5.0;" x1="415.4243" x2="415.4243" y1="53.2969" y2="290.2266"/><line style="stroke:#181818;stroke-width:0.5;stroke-dasharray:5.0,5.0;" x1="639.1216" x2="639.1216" y1="53.2969" y2="290.2266"/><text fill="#000000" font-family="sans-serif" font-size="14" lengthAdjust="spacing" textLength="53.71" x="5" y="49.9951">Product</text><ellipse cx="34.855" cy="21" fill="#E2E2F0" rx="12" ry="12" style="stroke:#181818;stroke-width:0.5;"/><line style="stroke:#181818;stroke-width:0.5;" x1="22.855" x2="46.855" y1="35" y2="35"/><text fill="#000000" font-family="sans-serif" font-size="14" lengthAdjust="spacing" textLength="53.71" x="5" y="302.2217">Product</text><ellipse cx="34.855" cy="321.5234" fill="#E2E2F0" rx="12" ry="12" style="stroke:#181818;stroke-width:0.5;"/><line style="stroke:#181818;stroke-width:0.5;" x1="22.855" x2="46.855" y1="335.5234" y2="335.5234"/><rect fill="#E2E2F0" height="30.2969" rx="2.5" ry="2.5" style="stroke:#181818;stroke-width:0.5;" width="61.6191" x="227.9966" y="22"/><text fill="#000000" font-family="sans-serif" font-size="14" lengthAdjust="spacing" textLength="47.6191" x="234.9966" y="41.9951">Case 1</text><rect fill="#E2E2F0" height="30.2969" rx="2.5" ry="2.5" style="stroke:#181818;stroke-width:0.5;" width="61.6191" x="227.9966" y="289.2266"/><text fill="#000000" font-family="sans-serif" font-size="14" lengthAdjust="spacing" textLength="47.6191" x="234.9966" y="309.2217">Case 1</text><rect fill="#E2E2F0" height="30.2969" rx="2.5" ry="2.5" style="stroke:#181818;stroke-width:0.5;" width="61.6191" x="385.4243" y="22"/><text fill="#000000" font-family="sans-serif" font-size="14" lengthAdjust="spacing" textLength="47.6191" x="392.4243" y="41.9951">Case 2</text><rect fill="#E2E2F0" height="30.2969" rx="2.5" ry="2.5" style="stroke:#181818;stroke-width:0.5;" width="61.6191" x="385.4243" y="289.2266"/><text fill="#000000" font-family="sans-serif" font-size="14" lengthAdjust="spacing" textLength="47.6191" x="392.4243" y="309.2217">Case 2</text><rect fill="#E2E2F0" height="30.2969" rx="2.5" ry="2.5" style="stroke:#181818;stroke-width:0.5;" width="61.6191" x="609.1216" y="22"/><text fill="#000000" font-family="sans-serif" font-size="14" lengthAdjust="spacing" textLength="47.6191" x="616.1216" y="41.9951">Case 3</text><rect fill="#E2E2F0" height="30.2969" rx="2.5" ry="2.5" style="stroke:#181818;stroke-width:0.5;" width="61.6191" x="609.1216" y="289.2266"/><text fill="#000000" font-family="sans-serif" font-size="14" lengthAdjust="spacing" textLength="47.6191" x="616.1216" y="309.2217">Case 3</text><polygon fill="#181818" points="246.8062,80.4297,256.8062,84.4297,246.8062,88.4297,250.8062,84.4297" style="stroke:#181818;stroke-width:1.0;"/><line style="stroke:#181818;stroke-width:1.0;" x1="34.855" x2="252.8062" y1="84.4297" y2="84.4297"/><text fill="#000000" font-family="sans-serif" font-size="13" lengthAdjust="spacing" textLength="199.9512" x="41.855" y="79.3638">Controleer Product begin band</text><polygon fill="#181818" points="404.2339,109.5625,414.2339,113.5625,404.2339,117.5625,408.2339,113.5625" style="stroke:#181818;stroke-width:1.0;"/><line style="stroke:#181818;stroke-width:1.0;" x1="258.8062" x2="410.2339" y1="113.5625" y2="113.5625"/><text fill="#000000" font-family="sans-serif" font-size="13" lengthAdjust="spacing" textLength="133.4277" x="265.8062" y="108.4966">Zet MotorStatus aan</text><line style="stroke:#181818;stroke-width:1.0;" x1="416.2339" x2="458.2339" y1="142.6953" y2="142.6953"/><line style="stroke:#181818;stroke-width:1.0;" x1="458.2339" x2="458.2339" y1="142.6953" y2="155.6953"/><line style="stroke:#181818;stroke-width:1.0;" x1="417.2339" x2="458.2339" y1="155.6953" y2="155.6953"/><polygon fill="#181818" points="427.2339,151.6953,417.2339,155.6953,427.2339,159.6953,423.2339,155.6953" style="stroke:#181818;stroke-width:1.0;"/><text fill="#000000" font-family="sans-serif" font-size="13" lengthAdjust="spacing" textLength="73.4487" x="423.2339" y="137.6294">Start Timer</text><polygon fill="#181818" points="627.9312,180.8281,637.9312,184.8281,627.9312,188.8281,631.9312,184.8281" style="stroke:#181818;stroke-width:1.0;"/><line style="stroke:#181818;stroke-width:1.0;" x1="416.2339" x2="633.9312" y1="184.8281" y2="184.8281"/><text fill="#000000" font-family="sans-serif" font-size="13" lengthAdjust="spacing" textLength="199.6973" x="423.2339" y="179.7622">Controleer Product einde band</text><polygon fill="#181818" points="427.2339,209.9609,417.2339,213.9609,427.2339,217.9609,423.2339,213.9609" style="stroke:#181818;stroke-width:1.0;"/><line style="stroke:#181818;stroke-width:1.0;" x1="421.2339" x2="638.9312" y1="213.9609" y2="213.9609"/><text fill="#000000" font-family="sans-serif" font-size="13" lengthAdjust="spacing" textLength="71.2461" x="433.2339" y="208.895">Stop Timer</text><polygon fill="#181818" points="269.8062,239.0938,259.8062,243.0938,269.8062,247.0938,265.8062,243.0938" style="stroke:#181818;stroke-width:1.0;"/><line style="stroke:#181818;stroke-width:1.0;" x1="263.8062" x2="415.2339" y1="243.0938" y2="243.0938"/><text fill="#000000" font-family="sans-serif" font-size="13" lengthAdjust="spacing" textLength="126.2041" x="275.8062" y="238.0278">Zet MotorStatus uit</text><polygon fill="#181818" points="45.855,268.2266,35.855,272.2266,45.855,276.2266,41.855,272.2266" style="stroke:#181818;stroke-width:1.0;"/><line style="stroke:#181818;stroke-width:1.0;" x1="39.855" x2="257.8062" y1="272.2266" y2="272.2266"/><text fill="#000000" font-family="sans-serif" font-size="13" lengthAdjust="spacing" textLength="167.375" x="51.855" y="267.1606">Controleer Nieuw product</text><!--SRC=[ROuz2y8m48Rt_8h3tQ7Dvk1I71N1JcxNzf13JSBbWlZlBQGV5Z8_3-_pdfooVk4gVaYzce2Yt7D0fx1hC19KEy08BSPdLQ3rGki2jGkrnam9s1_p6XoWyKx5luXaFW0TFTX1XsumsPhqUjJlf73swkMcg2a2eZEP_KaZ4uMMtoHRQCj1OZVG6hJRBHzAKrNXJ69T7y_Zc-A5ANqWPFG3]--></g></svg>