<svg xmlns="http://www.w3.org/2000/svg" xmlns:xlink="http://www.w3.org/1999/xlink" contentStyleType="text/css" height="397px" preserveAspectRatio="none" style="width:411px;height:397px;background:#FFFFFF;" version="1.1" viewBox="0 0 411 397" width="411px" zoomAndPan="magnify"><defs/><g><ellipse cx="254.99" cy="16" fill="#222222" rx="10" ry="10" style="stroke:#222222;stroke-width:1.0;"/><g id="Wachten"><rect fill="#F1F1F1" height="50" rx="12.5" ry="12.5" style="stroke:#181818;stroke-width:0.5;" width="81.9678" x="214.01" y="87"/><line style="stroke:#181818;stroke-width:0.5;" x1="214.01" x2="295.9778" y1="113.2969" y2="113.2969"/><text fill="#000000" font-family="sans-serif" font-size="14" lengthAdjust="spacing" textLength="61.9678" x="224.01" y="104.9951">Wachten</text></g><g id="TimerLopen"><rect fill="#F1F1F1" height="50" rx="12.5" ry="12.5" style="stroke:#181818;stroke-width:0.5;" width="103.1865" x="57.4" y="214"/><line style="stroke:#181818;stroke-width:0.5;" x1="57.4" x2="160.5865" y1="240.2969" y2="240.2969"/><text fill="#000000" font-family="sans-serif" font-size="14" lengthAdjust="spacing" textLength="83.1865" x="67.4" y="231.9951">TimerLopen</text></g><g id="TimerStoppen"><rect fill="#F1F1F1" height="50" rx="12.5" ry="12.5" style="stroke:#181818;stroke-width:0.5;" width="118.6494" x="110.67" y="341"/><line style="stroke:#181818;stroke-width:0.5;" x1="110.67" x2="229.3194" y1="367.2969" y2="367.2969"/><text fill="#000000" font-family="sans-serif" font-size="14" lengthAdjust="spacing" textLength="98.6494" x="120.67" y="358.9951">TimerStoppen</text></g><!--link *start* to Wachten--><g id="link_*start*_Wachten"><path d="M254.99,26.36 C254.99,40.29 254.99,60.95 254.99,80.65 " fill="none" id="*start*-to-Wachten" style="stroke:#181818;stroke-width:1.0;"/><polygon fill="#181818" points="254.99,86.65,258.99,77.65,254.99,81.65,250.99,77.65,254.99,86.65" style="stroke:#181818;stroke-width:1.0;"/></g><!--link Wachten to TimerLopen--><g id="link_Wachten_TimerLopen"><path d="M226.49,137.4 C200.77,159.42 167.678,187.7582 141.978,209.7582 " fill="none" id="Wachten-to-TimerLopen" style="stroke:#181818;stroke-width:1.0;"/><polygon fill="#181818" points="137.42,213.66,146.8583,210.846,141.2184,210.4085,141.6558,204.7686,137.42,213.66" style="stroke:#181818;stroke-width:1.0;"/><text fill="#000000" font-family="sans-serif" font-size="13" lengthAdjust="spacing" textLength="86.2393" x="191.99" y="180.0669">Timer = True</text></g><!--link TimerLopen to TimerStoppen--><g id="link_TimerLopen_TimerStoppen"><path d="M57.19,258.62 C30.34,271.29 6,289.62 20.99,311 C41.13,339.72 72.2829,352.0713 104.3929,358.3913 " fill="none" id="TimerLopen-to-TimerStoppen" style="stroke:#181818;stroke-width:1.0;"/><polygon fill="#181818" points="110.28,359.55,102.2219,353.8872,105.3741,358.5844,100.6769,361.7366,110.28,359.55" style="stroke:#181818;stroke-width:1.0;"/><text fill="#000000" font-family="sans-serif" font-size="13" lengthAdjust="spacing" textLength="267.9854" x="21.99" y="307.0669">ProductGedetecteerd2 &amp;&amp; Timer.ET &gt; 1s</text></g><!--link TimerStoppen to Wachten--><g id="link_TimerStoppen_Wachten"><path d="M229.55,353.95 C253.81,346.2 279.51,333.1 293.99,311 C329.11,257.4 305.62,228.31 286.99,167 C283.85,156.68 281.5415,151.347 275.9815,142.457 " fill="none" id="TimerStoppen-to-Wachten" style="stroke:#181818;stroke-width:1.0;"/><polygon fill="#181818" points="272.8,137.37,274.181,147.1216,275.4513,141.6092,280.9637,142.8795,272.8,137.37" style="stroke:#181818;stroke-width:1.0;"/><text fill="#000000" font-family="sans-serif" font-size="13" lengthAdjust="spacing" textLength="90.543" x="312.99" y="243.5669">Timer = False</text></g><!--SRC=[YzQALT3LjLC8JqpEA4dDuuBIOB6GpDpK8f_y0Y3N2i9Hi5K8AIfDvKAIWIiCBialW2WDACfFAKqkSKzDIIr9JIv9JIrACL9GKuCeqtCDKR1JC2pcGj64v0GakzmISufJ0G00]--></g></svg>