<svg xmlns="http://www.w3.org/2000/svg" xmlns:xlink="http://www.w3.org/1999/xlink" contentStyleType="text/css" height="270px" preserveAspectRatio="none" style="width:430px;height:270px;background:#FFFFFF;" version="1.1" viewBox="0 0 430 270" width="430px" zoomAndPan="magnify"><defs/><g><ellipse cx="194.71" cy="16" fill="#222222" rx="10" ry="10" style="stroke:#222222;stroke-width:1.0;"/><g id="Wachten"><rect fill="#F1F1F1" height="50" rx="12.5" ry="12.5" style="stroke:#181818;stroke-width:0.5;" width="81.9678" x="153.73" y="87"/><line style="stroke:#181818;stroke-width:0.5;" x1="153.73" x2="235.6978" y1="113.2969" y2="113.2969"/><text fill="#000000" font-family="sans-serif" font-size="14" lengthAdjust="spacing" textLength="61.9678" x="163.73" y="104.9951">Wachten</text></g><g id="Stoppen"><rect fill="#F1F1F1" height="50" rx="12.5" ry="12.5" style="stroke:#181818;stroke-width:0.5;" width="78.2012" x="155.61" y="214"/><line style="stroke:#181818;stroke-width:0.5;" x1="155.61" x2="233.8112" y1="240.2969" y2="240.2969"/><text fill="#000000" font-family="sans-serif" font-size="14" lengthAdjust="spacing" textLength="58.2012" x="165.61" y="231.9951">Stoppen</text></g><!--link *start* to Wachten--><g id="link_*start*_Wachten"><path d="M194.71,26.36 C194.71,40.29 194.71,60.95 194.71,80.65 " fill="none" id="*start*-to-Wachten" style="stroke:#181818;stroke-width:1.0;"/><polygon fill="#181818" points="194.71,86.65,198.71,77.65,194.71,81.65,190.71,77.65,194.71,86.65" style="stroke:#181818;stroke-width:1.0;"/></g><!--link Wachten to Stoppen--><g id="link_Wachten_Stoppen"><path d="M153.52,114.53 C116.42,118.35 63.83,130.4 37.71,167 C6,211.44 93.3261,227.943 149.5161,234.133 " fill="none" id="Wachten-to-Stoppen" style="stroke:#181818;stroke-width:1.0;"/><polygon fill="#181818" points="155.48,234.79,146.9721,229.8286,150.5101,234.2425,146.0961,237.7805,155.48,234.79" style="stroke:#181818;stroke-width:1.0;"/><text fill="#000000" font-family="sans-serif" font-size="13" lengthAdjust="spacing" textLength="267.9854" x="38.71" y="180.0669">ProductGedetecteerd2 &amp;&amp; Timer.ET &gt; 1s</text></g><!--link Stoppen to Wachten--><g id="link_Stoppen_Wachten"><path d="M233.97,230.46 C275.42,220.57 332.04,200.45 310.71,167 C294.35,141.34 268.069,129.2572 241.789,122.0972 " fill="none" id="Stoppen-to-Wachten" style="stroke:#181818;stroke-width:1.0;"/><polygon fill="#181818" points="236,120.52,243.632,126.7451,240.8242,121.8343,245.735,119.0265,236,120.52" style="stroke:#181818;stroke-width:1.0;"/><text fill="#000000" font-family="sans-serif" font-size="13" lengthAdjust="spacing" textLength="106.4185" x="315.71" y="180.0669">MotorStatus = 0</text></g><!--SRC=[YzQALT3LjLC8JqpEA4dDuuBIOB7Walo20Y3RIY6WA3-bDBd4FJKbjIGrkIGrjIZ5I45DJI4aCpUrICyrHC5EmR2O2wOUoJoWNj_yaloYu9B4aj9Y1Li50m00]--></g></svg>