<svg xmlns="http://www.w3.org/2000/svg" xmlns:xlink="http://www.w3.org/1999/xlink" contentStyleType="text/css" height="270px" preserveAspectRatio="none" style="width:499px;height:270px;background:#FFFFFF;" version="1.1" viewBox="0 0 499 270" width="499px" zoomAndPan="magnify"><defs/><g><ellipse cx="232.88" cy="16" fill="#222222" rx="10" ry="10" style="stroke:#222222;stroke-width:1.0;"/><g id="Wachten"><rect fill="#F1F1F1" height="50" rx="12.5" ry="12.5" style="stroke:#181818;stroke-width:0.5;" width="81.9678" x="191.9" y="87"/><line style="stroke:#181818;stroke-width:0.5;" x1="191.9" x2="273.8678" y1="113.2969" y2="113.2969"/><text fill="#000000" font-family="sans-serif" font-size="14" lengthAdjust="spacing" textLength="61.9678" x="201.9" y="104.9951">Wachten</text></g><g id="MotorAan"><rect fill="#F1F1F1" height="50" rx="12.5" ry="12.5" style="stroke:#181818;stroke-width:0.5;" width="87.4844" x="189.14" y="214"/><line style="stroke:#181818;stroke-width:0.5;" x1="189.14" x2="276.6244" y1="240.2969" y2="240.2969"/><text fill="#000000" font-family="sans-serif" font-size="14" lengthAdjust="spacing" textLength="67.4844" x="199.14" y="231.9951">MotorAan</text></g><!--link *start* to Wachten--><g id="link_*start*_Wachten"><path d="M232.88,26.36 C232.88,40.29 232.88,60.95 232.88,80.65 " fill="none" id="*start*-to-Wachten" style="stroke:#181818;stroke-width:1.0;"/><polygon fill="#181818" points="232.88,86.65,236.88,77.65,232.88,81.65,228.88,77.65,232.88,86.65" style="stroke:#181818;stroke-width:1.0;"/></g><!--link Wachten to MotorAan--><g id="link_Wachten_MotorAan"><path d="M191.55,119.02 C141.74,127.22 62.5,143.6 44.88,167 C6,218.63 115.8399,232.3658 182.8399,236.2158 " fill="none" id="Wachten-to-MotorAan" style="stroke:#181818;stroke-width:1.0;"/><polygon fill="#181818" points="188.83,236.56,180.0743,232.0503,183.8382,236.2732,179.6153,240.0371,188.83,236.56" style="stroke:#181818;stroke-width:1.0;"/><text fill="#000000" font-family="sans-serif" font-size="13" lengthAdjust="spacing" textLength="328.5483" x="45.88" y="180.0669">ProductGedetecteerd1 &amp;&amp; !ProductGedetecteerd2</text></g><!--link MotorAan to Wachten--><g id="link_MotorAan_Wachten"><path d="M276.85,233.2 C329.39,225.58 406.91,207.25 378.88,167 C355.48,133.4 314.592,121.4923 280.252,116.6823 " fill="none" id="MotorAan-to-Wachten" style="stroke:#181818;stroke-width:1.0;"/><polygon fill="#181818" points="274.31,115.85,282.6681,121.0598,279.2617,116.5436,283.7779,113.1371,274.31,115.85" style="stroke:#181818;stroke-width:1.0;"/><text fill="#000000" font-family="sans-serif" font-size="13" lengthAdjust="spacing" textLength="106.4185" x="384.88" y="180.0669">MotorStatus = 0</text></g><!--SRC=[YzQALT3LjLC8JqpEA4dDuuBIO37V_9By8iV4F0KhXO2Y_9JIv1Btr9JKajJaajJKeXH31JKr1KKi4aPSS8r89WCD0Gi7boIMb1Ohs2eO0000]--></g></svg>