<svg xmlns="http://www.w3.org/2000/svg" xmlns:xlink="http://www.w3.org/1999/xlink" contentStyleType="text/css" height="313px" preserveAspectRatio="none" style="width:676px;height:313px;background:#FFFFFF;" version="1.1" viewBox="0 0 676 313" width="676px" zoomAndPan="magnify"><defs/><g><line style="stroke:#181818;stroke-width:0.5;stroke-dasharray:5.0,5.0;" x1="34" x2="34" y1="53.2969" y2="261.0938"/><line style="stroke:#181818;stroke-width:0.5;stroke-dasharray:5.0,5.0;" x1="257.9966" x2="257.9966" y1="53.2969" y2="261.0938"/><line style="stroke:#181818;stroke-width:0.5;stroke-dasharray:5.0,5.0;" x1="415.4243" x2="415.4243" y1="53.2969" y2="261.0938"/><line style="stroke:#181818;stroke-width:0.5;stroke-dasharray:5.0,5.0;" x1="639.1216" x2="639.1216" y1="53.2969" y2="261.0938"/><text fill="#000000" font-family="sans-serif" font-size="14" lengthAdjust="spacing" textLength="53.71" x="5" y="49.9951">Product</text><ellipse cx="34.855" cy="21" fill="#E2E2F0" rx="12" ry="12" style="stroke:#181818;stroke-width:0.5;"/><line style="stroke:#181818;stroke-width:0.5;" x1="22.855" x2="46.855" y1="35" y2="35"/><text fill="#000000" font-family="sans-serif" font-size="14" lengthAdjust="spacing" textLength="53.71" x="5" y="273.0889">Product</text><ellipse cx="34.855" cy="292.3906" fill="#E2E2F0" rx="12" ry="12" style="stroke:#181818;stroke-width:0.5;"/><line style="stroke:#181818;stroke-width:0.5;" x1="22.855" x2="46.855" y1="306.3906" y2="306.3906"/><rect fill="#E2E2F0" height="30.2969" rx="2.5" ry="2.5" style="stroke:#181818;stroke-width:0.5;" width="61.6191" x="227.9966" y="22"/><text fill="#000000" font-family="sans-serif" font-size="14" lengthAdjust="spacing" textLength="47.6191" x="234.9966" y="41.9951">Case 1</text><rect fill="#E2E2F0" height="30.2969" rx="2.5" ry="2.5" style="stroke:#181818;stroke-width:0.5;" width="61.6191" x="227.9966" y="260.0938"/><text fill="#000000" font-family="sans-serif" font-size="14" lengthAdjust="spacing" textLength="47.6191" x="234.9966" y="280.0889">Case 1</text><rect fill="#E2E2F0" height="30.2969" rx="2.5" ry="2.5" style="stroke:#181818;stroke-width:0.5;" width="61.6191" x="385.4243" y="22"/><text fill="#000000" font-family="sans-serif" font-size="14" lengthAdjust="spacing" textLength="47.6191" x="392.4243" y="41.9951">Case 2</text><rect fill="#E2E2F0" height="30.2969" rx="2.5" ry="2.5" style="stroke:#181818;stroke-width:0.5;" width="61.6191" x="385.4243" y="260.0938"/><text fill="#000000" font-family="sans-serif" font-size="14" lengthAdjust="spacing" textLength="47.6191" x="392.4243" y="280.0889">Case 2</text><rect fill="#E2E2F0" height="30.2969" rx="2.5" ry="2.5" style="stroke:#181818;stroke-width:0.5;" width="61.6191" x="609.1216" y="22"/><text fill="#000000" font-family="sans-serif" font-size="14" lengthAdjust="spacing" textLength="47.6191" x="616.1216" y="41.9951">Case 3</text><rect fill="#E2E2F0" height="30.2969" rx="2.5" ry="2.5" style="stroke:#181818;stroke-width:0.5;" width="61.6191" x="609.1216" y="260.0938"/><text fill="#000000" font-family="sans-serif" font-size="14" lengthAdjust="spacing" textLength="47.6191" x="616.1216" y="280.0889">Case 3</text><polygon fill="#181818" points="246.8062,80.4297,256.8062,84.4297,246.8062,88.4297,250.8062,84.4297" style="stroke:#181818;stroke-width:1.0;"/><line style="stroke:#181818;stroke-width:1.0;" x1="34.855" x2="252.8062" y1="84.4297" y2="84.4297"/><text fill="#000000" font-family="sans-serif" font-size="13" lengthAdjust="spacing" textLength="199.9512" x="41.855" y="79.3638">Controleer Product begin band</text><polygon fill="#181818" points="404.2339,109.5625,414.2339,113.5625,404.2339,117.5625,408.2339,113.5625" style="stroke:#181818;stroke-width:1.0;"/><line style="stroke:#181818;stroke-width:1.0;" x1="258.8062" x2="410.2339" y1="113.5625" y2="113.5625"/><text fill="#000000" font-family="sans-serif" font-size="13" lengthAdjust="spacing" textLength="133.4277" x="265.8062" y="108.4966">Zet MotorStatus aan</text><line style="stroke:#181818;stroke-width:1.0;" x1="416.2339" x2="458.2339" y1="142.6953" y2="142.6953"/><line style="stroke:#181818;stroke-width:1.0;" x1="458.2339" x2="458.2339" y1="142.6953" y2="155.6953"/><line style="stroke:#181818;stroke-width:1.0;" x1="417.2339" x2="458.2339" y1="155.6953" y2="155.6953"/><polygon fill="#181818" points="427.2339,151.6953,417.2339,155.6953,427.2339,159.6953,423.2339,155.6953" style="stroke:#181818;stroke-width:1.0;"/><text fill="#000000" font-family="sans-serif" font-size="13" lengthAdjust="spacing" textLength="73.4487" x="423.2339" y="137.6294">Start Timer</text><polygon fill="#181818" points="627.9312,180.8281,637.9312,184.8281,627.9312,188.8281,631.9312,184.8281" style="stroke:#181818;stroke-width:1.0;"/><line style="stroke:#181818;stroke-width:1.0;" x1="416.2339" x2="633.9312" y1="184.8281" y2="184.8281"/><text fill="#000000" font-family="sans-serif" font-size="13" lengthAdjust="spacing" textLength="199.6973" x="423.2339" y="179.7622">Controleer Product einde band</text><polygon fill="#181818" points="269.8062,209.9609,259.8062,213.9609,269.8062,217.9609,265.8062,213.9609" style="stroke:#181818;stroke-width:1.0;"/><line style="stroke:#181818;stroke-width:1.0;" x1="263.8062" x2="638.9312" y1="213.9609" y2="213.9609"/><text fill="#000000" font-family="sans-serif" font-size="13" lengthAdjust="spacing" textLength="215.8521" x="275.8062" y="208.895">Stop Timer &amp; Zet MotorStatus uit</text><polygon fill="#181818" points="45.855,239.0938,35.855,243.0938,45.855,247.0938,41.855,243.0938" style="stroke:#181818;stroke-width:1.0;"/><line style="stroke:#181818;stroke-width:1.0;" x1="39.855" x2="257.8062" y1="243.0938" y2="243.0938"/><text fill="#000000" font-family="sans-serif" font-size="13" lengthAdjust="spacing" textLength="167.375" x="51.855" y="238.0278">Controleer Nieuw product</text><!--SRC=[ROwz2i8m54RtFCMbWvj3cyt1fJWgGZkvtRONkQX9I6uelhs5z1SxdyDtleiHbY_SlUrYAygX5sxPeH78IWm4UGOOeCRmodTeCTDYX-gPQgN611pFQGrEK5eZthw9_7G06dgoWGPDfv8rwiMWFqZWQiNwIb1Y04IZ4bj90_C2DN_8Rw7U3nARZfQWNl-hnBeq1OU_UcHPBavhcyIDAVRW4le1]--></g></svg>