<svg xmlns="http://www.w3.org/2000/svg" xmlns:xlink="http://www.w3.org/1999/xlink" contentStyleType="text/css" height="397px" preserveAspectRatio="none" style="width:419px;height:397px;background:#FFFFFF;" version="1.1" viewBox="0 0 419 397" width="419px" zoomAndPan="magnify"><defs/><g><ellipse cx="205.57" cy="16" fill="#222222" rx="10" ry="10" style="stroke:#222222;stroke-width:1.0;"/><g id="Wachten"><rect fill="#F1F1F1" height="50" rx="12.5" ry="12.5" style="stroke:#181818;stroke-width:0.5;" width="81.9678" x="164.59" y="87"/><line style="stroke:#181818;stroke-width:0.5;" x1="164.59" x2="246.5578" y1="113.2969" y2="113.2969"/><text fill="#000000" font-family="sans-serif" font-size="14" lengthAdjust="spacing" textLength="61.9678" x="174.59" y="104.9951">Wachten</text></g><g id="TimerLopen"><rect fill="#F1F1F1" height="50" rx="12.5" ry="12.5" style="stroke:#181818;stroke-width:0.5;" width="103.1865" x="8.98" y="214"/><line style="stroke:#181818;stroke-width:0.5;" x1="8.98" x2="112.1665" y1="240.2969" y2="240.2969"/><text fill="#000000" font-family="sans-serif" font-size="14" lengthAdjust="spacing" textLength="83.1865" x="18.98" y="231.9951">TimerLopen</text></g><g id="Stoppen"><rect fill="#F1F1F1" height="50" rx="12.5" ry="12.5" style="stroke:#181818;stroke-width:0.5;" width="78.2012" x="126.47" y="341"/><line style="stroke:#181818;stroke-width:0.5;" x1="126.47" x2="204.6712" y1="367.2969" y2="367.2969"/><text fill="#000000" font-family="sans-serif" font-size="14" lengthAdjust="spacing" textLength="58.2012" x="136.47" y="358.9951">Stoppen</text></g><!--link *start* to Wachten--><g id="link_*start*_Wachten"><path d="M205.57,26.36 C205.57,40.29 205.57,60.95 205.57,80.65 " fill="none" id="*start*-to-Wachten" style="stroke:#181818;stroke-width:1.0;"/><polygon fill="#181818" points="205.57,86.65,209.57,77.65,205.57,81.65,201.57,77.65,205.57,86.65" style="stroke:#181818;stroke-width:1.0;"/></g><!--link Wachten to TimerLopen--><g id="link_Wachten_TimerLopen"><path d="M177.27,137.4 C151.72,159.42 118.8752,187.7432 93.3452,209.7432 " fill="none" id="Wachten-to-TimerLopen" style="stroke:#181818;stroke-width:1.0;"/><polygon fill="#181818" points="88.8,213.66,98.229,210.815,92.5877,210.396,93.0067,204.7547,88.8,213.66" style="stroke:#181818;stroke-width:1.0;"/><text fill="#000000" font-family="sans-serif" font-size="13" lengthAdjust="spacing" textLength="106.4185" x="143.57" y="180.0669">MotorStatus = 1</text></g><!--link TimerLopen to Stoppen--><g id="link_TimerLopen_Stoppen"><path d="M30.26,264.43 C16.75,278.33 6,295.92 16.57,311 C41.14,346.03 84.8848,357.6981 120.1148,362.0281 " fill="none" id="TimerLopen-to-Stoppen" style="stroke:#181818;stroke-width:1.0;"/><polygon fill="#181818" points="126.07,362.76,117.6252,357.692,121.1073,362.1501,116.6493,365.6322,126.07,362.76" style="stroke:#181818;stroke-width:1.0;"/><text fill="#000000" font-family="sans-serif" font-size="13" lengthAdjust="spacing" textLength="267.9854" x="17.57" y="307.0669">ProductGedetecteerd2 &amp;&amp; Timer.ET &gt; 1s</text></g><!--link Stoppen to Wachten--><g id="link_Stoppen_Wachten"><path d="M205.07,359.34 C233.87,352.93 270.98,339.38 289.57,311 C325.45,256.24 290.4,224.21 258.57,167 C252.51,156.1 247.9241,150.0508 239.1741,141.4708 " fill="none" id="Stoppen-to-Wachten" style="stroke:#181818;stroke-width:1.0;"/><polygon fill="#181818" points="234.89,137.27,238.5155,146.4273,238.46,140.7707,244.1166,140.7152,234.89,137.27" style="stroke:#181818;stroke-width:1.0;"/><text fill="#000000" font-family="sans-serif" font-size="13" lengthAdjust="spacing" textLength="106.4185" x="305.57" y="243.5669">MotorStatus = 0</text></g><!--SRC=[YzQALT3LjLC8JqpEA4dDuuBIOB6GpDpK8f_y0Y3NIi4tloI_ABWaiQIqMC5MmP0BIHAaDhWalm2YCA0eFwKqkSGzDIMr93Mv93MrACL8GKqDOfgUQuY2dO9XCHTCFPBT69OO0000]--></g></svg>