<svg xmlns="http://www.w3.org/2000/svg" xmlns:xlink="http://www.w3.org/1999/xlink" contentStyleType="text/css" height="397px" preserveAspectRatio="none" style="width:274px;height:397px;background:#FFFFFF;" version="1.1" viewBox="0 0 274 397" width="274px" zoomAndPan="magnify"><defs/><g><ellipse cx="55.25" cy="16" fill="#222222" rx="10" ry="10" style="stroke:#222222;stroke-width:1.0;"/><g id="Initialisatie"><rect fill="#F1F1F1" height="50" rx="12.5" ry="12.5" style="stroke:#181818;stroke-width:0.5;" width="96.4941" x="7" y="87"/><line style="stroke:#181818;stroke-width:0.5;" x1="7" x2="103.4941" y1="113.2969" y2="113.2969"/><text fill="#000000" font-family="sans-serif" font-size="14" lengthAdjust="spacing" textLength="76.4941" x="17" y="104.9951">Initialisatie</text></g><g id="MotorAan"><rect fill="#F1F1F1" height="50" rx="12.5" ry="12.5" style="stroke:#181818;stroke-width:0.5;" width="87.4844" x="11.5" y="214"/><line style="stroke:#181818;stroke-width:0.5;" x1="11.5" x2="98.9844" y1="240.2969" y2="240.2969"/><text fill="#000000" font-family="sans-serif" font-size="14" lengthAdjust="spacing" textLength="67.4844" x="21.5" y="231.9951">MotorAan</text></g><g id="Case2"><rect fill="#F1F1F1" height="50" rx="12.5" ry="12.5" style="stroke:#181818;stroke-width:0.5;" width="63.1689" x="23.66" y="341"/><line style="stroke:#181818;stroke-width:0.5;" x1="23.66" x2="86.8289" y1="367.2969" y2="367.2969"/><text fill="#000000" font-family="sans-serif" font-size="14" lengthAdjust="spacing" textLength="43.1689" x="33.66" y="358.9951">Case2</text></g><!--link *start* to Initialisatie--><g id="link_*start*_Initialisatie"><path d="M55.25,26.36 C55.25,40.29 55.25,60.95 55.25,80.65 " fill="none" id="*start*-to-Initialisatie" style="stroke:#181818;stroke-width:1.0;"/><polygon fill="#181818" points="55.25,86.65,59.25,77.65,55.25,81.65,51.25,77.65,55.25,86.65" style="stroke:#181818;stroke-width:1.0;"/></g><!--link Initialisatie to MotorAan--><g id="link_Initialisatie_MotorAan"><path d="M55.25,137.4 C55.25,159.42 55.25,185.66 55.25,207.66 " fill="none" id="Initialisatie-to-MotorAan" style="stroke:#181818;stroke-width:1.0;"/><polygon fill="#181818" points="55.25,213.66,59.25,204.66,55.25,208.66,51.25,204.66,55.25,213.66" style="stroke:#181818;stroke-width:1.0;"/><text fill="#000000" font-family="sans-serif" font-size="13" lengthAdjust="spacing" textLength="210.228" x="56.25" y="180.0669">Product gedetecteerd aan begin</text></g><!--link MotorAan to Case2--><g id="link_MotorAan_Case2"><path d="M55.25,264.4 C55.25,286.42 55.25,312.66 55.25,334.66 " fill="none" id="MotorAan-to-Case2" style="stroke:#181818;stroke-width:1.0;"/><polygon fill="#181818" points="55.25,340.66,59.25,331.66,55.25,335.66,51.25,331.66,55.25,340.66" style="stroke:#181818;stroke-width:1.0;"/><text fill="#000000" font-family="sans-serif" font-size="13" lengthAdjust="spacing" textLength="65.8696" x="56.25" y="307.0669">Motor aan</text></g><!--SRC=[YzQALT3LjLFmpCiioKpCoInEBCbCvKBXWULzyqloYnmJynIi50AAybDAaqiKqbDJKajIaqjIKujI51A1KacfwPbvN72L86tEYSMfHa0zO46G8W00]--></g></svg>