<svg xmlns="http://www.w3.org/2000/svg" xmlns:xlink="http://www.w3.org/1999/xlink" contentStyleType="text/css" height="284px" preserveAspectRatio="none" style="width:717px;height:284px;background:#FFFFFF;" version="1.1" viewBox="0 0 717 284" width="717px" zoomAndPan="magnify"><defs/><g><line style="stroke:#181818;stroke-width:0.5;stroke-dasharray:5.0,5.0;" x1="34" x2="34" y1="53.2969" y2="231.9609"/><line style="stroke:#181818;stroke-width:0.5;stroke-dasharray:5.0,5.0;" x1="278.417" x2="278.417" y1="53.2969" y2="231.9609"/><line style="stroke:#181818;stroke-width:0.5;stroke-dasharray:5.0,5.0;" x1="435.8447" x2="435.8447" y1="53.2969" y2="231.9609"/><line style="stroke:#181818;stroke-width:0.5;stroke-dasharray:5.0,5.0;" x1="679.9941" x2="679.9941" y1="53.2969" y2="231.9609"/><text fill="#000000" font-family="sans-serif" font-size="14" lengthAdjust="spacing" textLength="53.71" x="5" y="49.9951">Product</text><ellipse cx="34.855" cy="21" fill="#E2E2F0" rx="12" ry="12" style="stroke:#181818;stroke-width:0.5;"/><line style="stroke:#181818;stroke-width:0.5;" x1="22.855" x2="46.855" y1="35" y2="35"/><text fill="#000000" font-family="sans-serif" font-size="14" lengthAdjust="spacing" textLength="53.71" x="5" y="243.9561">Product</text><ellipse cx="34.855" cy="263.2578" fill="#E2E2F0" rx="12" ry="12" style="stroke:#181818;stroke-width:0.5;"/><line style="stroke:#181818;stroke-width:0.5;" x1="22.855" x2="46.855" y1="277.2578" y2="277.2578"/><rect fill="#E2E2F0" height="30.2969" rx="2.5" ry="2.5" style="stroke:#181818;stroke-width:0.5;" width="61.1748" x="248.417" y="22"/><text fill="#000000" font-family="sans-serif" font-size="14" lengthAdjust="spacing" textLength="47.1748" x="255.417" y="41.9951">Taak 1</text><rect fill="#E2E2F0" height="30.2969" rx="2.5" ry="2.5" style="stroke:#181818;stroke-width:0.5;" width="61.1748" x="248.417" y="230.9609"/><text fill="#000000" font-family="sans-serif" font-size="14" lengthAdjust="spacing" textLength="47.1748" x="255.417" y="250.9561">Taak 1</text><rect fill="#E2E2F0" height="30.2969" rx="2.5" ry="2.5" style="stroke:#181818;stroke-width:0.5;" width="61.1748" x="405.8447" y="22"/><text fill="#000000" font-family="sans-serif" font-size="14" lengthAdjust="spacing" textLength="47.1748" x="412.8447" y="41.9951">Taak 2</text><rect fill="#E2E2F0" height="30.2969" rx="2.5" ry="2.5" style="stroke:#181818;stroke-width:0.5;" width="61.1748" x="405.8447" y="230.9609"/><text fill="#000000" font-family="sans-serif" font-size="14" lengthAdjust="spacing" textLength="47.1748" x="412.8447" y="250.9561">Taak 2</text><rect fill="#E2E2F0" height="30.2969" rx="2.5" ry="2.5" style="stroke:#181818;stroke-width:0.5;" width="61.1748" x="649.9941" y="22"/><text fill="#000000" font-family="sans-serif" font-size="14" lengthAdjust="spacing" textLength="47.1748" x="656.9941" y="41.9951">Taak 3</text><rect fill="#E2E2F0" height="30.2969" rx="2.5" ry="2.5" style="stroke:#181818;stroke-width:0.5;" width="61.1748" x="649.9941" y="230.9609"/><text fill="#000000" font-family="sans-serif" font-size="14" lengthAdjust="spacing" textLength="47.1748" x="656.9941" y="250.9561">Taak 3</text><polygon fill="#181818" points="267.0044,80.4297,277.0044,84.4297,267.0044,88.4297,271.0044,84.4297" style="stroke:#181818;stroke-width:1.0;"/><line style="stroke:#181818;stroke-width:1.0;" x1="34.855" x2="273.0044" y1="84.4297" y2="84.4297"/><text fill="#000000" font-family="sans-serif" font-size="13" lengthAdjust="spacing" textLength="220.1494" x="41.855" y="79.3638">Controleer ProductGedetecteerd1</text><polygon fill="#181818" points="424.4321,109.5625,434.4321,113.5625,424.4321,117.5625,428.4321,113.5625" style="stroke:#181818;stroke-width:1.0;"/><line style="stroke:#181818;stroke-width:1.0;" x1="279.0044" x2="430.4321" y1="113.5625" y2="113.5625"/><text fill="#000000" font-family="sans-serif" font-size="13" lengthAdjust="spacing" textLength="133.4277" x="286.0044" y="108.4966">Zet MotorStatus aan</text><line style="stroke:#181818;stroke-width:1.0;" x1="436.4321" x2="478.4321" y1="142.6953" y2="142.6953"/><line style="stroke:#181818;stroke-width:1.0;" x1="478.4321" x2="478.4321" y1="142.6953" y2="155.6953"/><line style="stroke:#181818;stroke-width:1.0;" x1="437.4321" x2="478.4321" y1="155.6953" y2="155.6953"/><polygon fill="#181818" points="447.4321,151.6953,437.4321,155.6953,447.4321,159.6953,443.4321,155.6953" style="stroke:#181818;stroke-width:1.0;"/><text fill="#000000" font-family="sans-serif" font-size="13" lengthAdjust="spacing" textLength="73.4487" x="443.4321" y="137.6294">Start Timer</text><polygon fill="#181818" points="668.5815,180.8281,678.5815,184.8281,668.5815,188.8281,672.5815,184.8281" style="stroke:#181818;stroke-width:1.0;"/><line style="stroke:#181818;stroke-width:1.0;" x1="436.4321" x2="674.5815" y1="184.8281" y2="184.8281"/><text fill="#000000" font-family="sans-serif" font-size="13" lengthAdjust="spacing" textLength="220.1494" x="443.4321" y="179.7622">Controleer ProductGedetecteerd2</text><polygon fill="#181818" points="447.4321,209.9609,437.4321,213.9609,447.4321,217.9609,443.4321,213.9609" style="stroke:#181818;stroke-width:1.0;"/><line style="stroke:#181818;stroke-width:1.0;" x1="441.4321" x2="679.5815" y1="213.9609" y2="213.9609"/><text fill="#000000" font-family="sans-serif" font-size="13" lengthAdjust="spacing" textLength="71.2461" x="453.4321" y="208.895">Stop Timer</text><!--SRC=[XOun2y8m48Nt_8gZkqFIpS55n4aGxEHsf3U4QX8khqF_lONKOg7WUj_tthjBHC14Tqtzw64oAu8FcIEewPW7iWrneOxBO7UeMwdReUrAMsEM2JgSQXiTwPmYDBr4zFl0LNg1UCodtfhgBG4t1vu2kYKaVO0n5cAEfh8VQMOAwi9RT0lRlvFEL6_Jbd8j-m00]--></g></svg>