<svg xmlns="http://www.w3.org/2000/svg" xmlns:xlink="http://www.w3.org/1999/xlink" contentStyleType="text/css" height="524px" preserveAspectRatio="none" style="width:343px;height:524px;background:#FFFFFF;" version="1.1" viewBox="0 0 343 524" width="343px" zoomAndPan="magnify"><defs/><g><ellipse cx="66.32" cy="16" fill="#222222" rx="10" ry="10" style="stroke:#222222;stroke-width:1.0;"/><g id="Case2"><rect fill="#F1F1F1" height="50" rx="12.5" ry="12.5" style="stroke:#181818;stroke-width:0.5;" width="63.1689" x="34.74" y="87"/><line style="stroke:#181818;stroke-width:0.5;" x1="34.74" x2="97.9089" y1="113.2969" y2="113.2969"/><text fill="#000000" font-family="sans-serif" font-size="14" lengthAdjust="spacing" textLength="43.1689" x="44.74" y="104.9951">Case2</text></g><g id="TimerLopen"><rect fill="#F1F1F1" height="50" rx="12.5" ry="12.5" style="stroke:#181818;stroke-width:0.5;" width="103.1865" x="14.73" y="214"/><line style="stroke:#181818;stroke-width:0.5;" x1="14.73" x2="117.9165" y1="240.2969" y2="240.2969"/><text fill="#000000" font-family="sans-serif" font-size="14" lengthAdjust="spacing" textLength="83.1865" x="24.73" y="231.9951">TimerLopen</text></g><g id="TimerStoppen"><rect fill="#F1F1F1" height="50" rx="12.5" ry="12.5" style="stroke:#181818;stroke-width:0.5;" width="118.6494" x="7" y="341"/><line style="stroke:#181818;stroke-width:0.5;" x1="7" x2="125.6494" y1="367.2969" y2="367.2969"/><text fill="#000000" font-family="sans-serif" font-size="14" lengthAdjust="spacing" textLength="98.6494" x="17" y="358.9951">TimerStoppen</text></g><g id="Case3"><rect fill="#F1F1F1" height="50" rx="12.5" ry="12.5" style="stroke:#181818;stroke-width:0.5;" width="63.1689" x="34.74" y="468"/><line style="stroke:#181818;stroke-width:0.5;" x1="34.74" x2="97.9089" y1="494.2969" y2="494.2969"/><text fill="#000000" font-family="sans-serif" font-size="14" lengthAdjust="spacing" textLength="43.1689" x="44.74" y="485.9951">Case3</text></g><!--link *start* to Case2--><g id="link_*start*_Case2"><path d="M66.32,26.36 C66.32,40.29 66.32,60.95 66.32,80.65 " fill="none" id="*start*-to-Case2" style="stroke:#181818;stroke-width:1.0;"/><polygon fill="#181818" points="66.32,86.65,70.32,77.65,66.32,81.65,62.32,77.65,66.32,86.65" style="stroke:#181818;stroke-width:1.0;"/></g><!--link Case2 to TimerLopen--><g id="link_Case2_TimerLopen"><path d="M66.32,137.4 C66.32,159.42 66.32,185.66 66.32,207.66 " fill="none" id="Case2-to-TimerLopen" style="stroke:#181818;stroke-width:1.0;"/><polygon fill="#181818" points="66.32,213.66,70.32,204.66,66.32,208.66,62.32,204.66,66.32,213.66" style="stroke:#181818;stroke-width:1.0;"/><text fill="#000000" font-family="sans-serif" font-size="13" lengthAdjust="spacing" textLength="86.2393" x="67.32" y="180.0669">Timer = True</text></g><!--link TimerLopen to TimerStoppen--><g id="link_TimerLopen_TimerStoppen"><path d="M66.32,264.4 C66.32,286.42 66.32,312.66 66.32,334.66 " fill="none" id="TimerLopen-to-TimerStoppen" style="stroke:#181818;stroke-width:1.0;"/><polygon fill="#181818" points="66.32,340.66,70.32,331.66,66.32,335.66,62.32,331.66,66.32,340.66" style="stroke:#181818;stroke-width:1.0;"/><text fill="#000000" font-family="sans-serif" font-size="13" lengthAdjust="spacing" textLength="267.9854" x="67.32" y="307.0669">ProductGedetecteerd2 &amp;&amp; Timer.ET &gt; 1s</text></g><!--link TimerStoppen to Case3--><g id="link_TimerStoppen_Case3"><path d="M66.32,391.4 C66.32,413.42 66.32,439.66 66.32,461.66 " fill="none" id="TimerStoppen-to-Case3" style="stroke:#181818;stroke-width:1.0;"/><polygon fill="#181818" points="66.32,467.66,70.32,458.66,66.32,462.66,62.32,458.66,66.32,467.66" style="stroke:#181818;stroke-width:1.0;"/><text fill="#000000" font-family="sans-serif" font-size="13" lengthAdjust="spacing" textLength="90.543" x="67.32" y="434.0669">Timer = False</text></g><!--SRC=[YzQALT3LjLDmJYnEDU82as1-I6PkQf5FVa5gde8LXADWgn1IL9hAXIG3LnXSaby0KHfGb9zIcbpYdfgIMfAQN9AQMfHYfA2c1b6cvngYOATWMCo5eWbclJ6IJMw9ESMf0000]--></g></svg>